<svg width="53" height="54" viewBox="0 0 53 54" fill="none" xmlns="http://www.w3.org/2000/svg">
<path d="M52.2103 33.3737C48.6829 47.5246 34.3458 56.1267 20.2151 52.5991C6.06376 49.0717 -2.53841 34.7352 0.989211 20.6047C4.51662 6.45377 18.833 -2.14839 32.9843 1.37923C47.115 4.88601 55.738 19.2225 52.2103 33.3737Z" fill="url(#paint0_linear_31_198)"/>
<path d="M39.3795 23.3484C39.8873 19.8953 37.267 18.0266 33.6514 16.7875L34.8295 12.0953L31.9857 11.3844L30.8482 15.9547C30.0967 15.7719 29.3248 15.5891 28.5529 15.4266L29.6904 10.8359L26.8467 10.125L25.6889 14.7969C25.0592 14.6547 24.4498 14.5125 23.8607 14.3703V14.35L19.9201 13.375L19.1686 16.4219C19.1686 16.4219 21.2811 16.9094 21.2404 16.9297C22.3982 17.2141 22.6014 17.9859 22.5607 18.5953L21.2201 23.9375C21.3014 23.9578 21.4029 23.9781 21.5248 24.0391C21.4232 24.0188 21.3217 23.9984 21.2201 23.9578L19.3514 31.4328C19.2092 31.7781 18.8436 32.3062 18.0514 32.1031C18.0717 32.1437 15.9795 31.5953 15.9795 31.5953L14.5576 34.8656L18.2748 35.8C18.9654 35.9828 19.6357 36.1453 20.3061 36.3281L19.1279 41.0609L21.9717 41.7719L23.1498 37.0797C23.9217 37.2828 24.6936 37.4859 25.4248 37.6688L24.267 42.3406L27.1107 43.0516L28.2889 38.3188C33.1639 39.2328 36.8201 38.8672 38.3436 34.4594C39.5826 30.925 38.2826 28.8734 35.7232 27.5328C37.6123 27.1062 39.0139 25.8672 39.3795 23.3484ZM32.8592 32.4891C31.9857 36.0234 26.0139 34.1141 24.0842 33.6266L25.6482 27.35C27.5779 27.8375 33.7936 28.7922 32.8592 32.4891ZM33.7529 23.2875C32.9404 26.5172 27.9842 24.8719 26.3795 24.4656L27.8014 18.7781C29.4061 19.1844 34.5857 19.9359 33.7529 23.2875Z" fill="white"/>
<defs>
<linearGradient id="paint0_linear_31_198" x1="26.5849" y1="0.575584" x2="26.5849" y2="53.3848" gradientUnits="userSpaceOnUse">
<stop stop-color="#F9AA4B"/>
<stop offset="1" stop-color="#F7931A"/>
</linearGradient>
</defs>
</svg>
