<svg width="44" height="54" viewBox="0 0 44 54" fill="none" xmlns="http://www.w3.org/2000/svg">
<path d="M7.71422 0.714233C5.74404 0.714233 3.85455 1.49688 2.46142 2.89001C1.0683 4.28314 0.285645 6.17263 0.285645 8.14281V45.8571C0.285645 47.8273 1.0683 49.7168 2.46142 51.1099C3.85455 52.503 5.74404 53.2857 7.71422 53.2857H41.9999C42.4546 53.2857 42.8906 53.1051 43.2121 52.7836C43.5336 52.4621 43.7142 52.026 43.7142 51.5714C43.7142 51.1167 43.5336 50.6807 43.2121 50.3592C42.8906 50.0377 42.4546 49.8571 41.9999 49.8571H7.71422C6.75237 49.8571 5.82275 49.5105 5.09567 48.8808C4.3686 48.2511 3.89276 47.3805 3.75536 46.4285H41.9999C42.4546 46.4285 42.8906 46.2479 43.2121 45.9264C43.5336 45.6049 43.7142 45.1689 43.7142 44.7142V8.14281C43.7142 6.17263 42.9316 4.28314 41.5384 2.89001C40.1453 1.49688 38.2558 0.714233 36.2856 0.714233H7.71422ZM26.5714 20.1359C26.5726 21.349 26.0919 22.5128 25.235 23.3714C24.3781 24.23 23.2152 24.713 22.0022 24.7142C20.7892 24.7154 19.6254 24.2347 18.7668 23.3779C17.9082 22.521 17.4251 21.3581 17.4239 20.1451C17.4233 19.5445 17.541 18.9496 17.7703 18.3945C17.9996 17.8393 18.336 17.3348 18.7603 16.9096C19.6172 16.0511 20.78 15.568 21.9931 15.5668C23.2061 15.5656 24.3699 16.0463 25.2285 16.9032C26.0871 17.7601 26.5701 18.9229 26.5714 20.1359ZM29.9999 28.8582V30.0925C29.9999 32.5725 26.5942 34.4285 21.9999 34.4285C17.4056 34.4285 13.9999 32.5702 13.9999 30.0948V28.8582C13.999 28.6149 14.0461 28.3738 14.1385 28.1487C14.2308 27.9236 14.3666 27.7188 14.5382 27.5463C14.7097 27.3737 14.9135 27.2366 15.1381 27.1428C15.3626 27.0491 15.6035 27.0005 15.8468 26.9999H28.1531C28.3964 27.0005 28.6372 27.0491 28.8618 27.1428C29.0863 27.2366 29.2902 27.3737 29.4617 27.5463C29.6332 27.7188 29.7691 27.9236 29.8614 28.1487C29.9538 28.3738 30.0008 28.6149 29.9999 28.8582Z" fill="black"/>
</svg>
