<svg width="29" height="24" viewBox="0 0 29 24" fill="none" xmlns="http://www.w3.org/2000/svg">
<path d="M22.6829 13.36L17.4665 17.3333H10.4665V16H16.1575C16.2841 15.9999 16.4084 15.9672 16.517 15.9052C16.6256 15.8432 16.7145 15.7543 16.7743 15.648C16.834 15.5417 16.8624 15.4219 16.8563 15.3015C16.8503 15.181 16.8101 15.0644 16.7399 14.964L15.4967 13.188C15.2417 12.8224 14.8956 12.5226 14.4894 12.3153C14.0831 12.108 13.6294 11.9997 13.1685 12H2.0665C1.6952 12 1.33911 12.1405 1.07655 12.3905C0.814003 12.6406 0.666504 12.9797 0.666504 13.3333V21.3333C0.666504 22.0406 0.961503 22.7189 1.4866 23.219C2.01171 23.719 2.7239 24 3.4665 24H16.9611C17.5598 24.0001 18.1515 23.8784 18.6967 23.6429C19.2419 23.4074 19.728 23.0637 20.1223 22.6347L28.6665 13.3333L26.6337 12.688C25.9686 12.4769 25.2586 12.4278 24.5685 12.5451C23.8784 12.6625 23.2301 12.9427 22.6829 13.36ZM24.8277 5.85333C25.4591 5.23333 25.8497 4.376 25.8497 3.42933C25.8497 2.48267 25.4591 1.62533 24.8277 1.00533C24.5084 0.687971 24.125 0.435328 23.7007 0.26257C23.2763 0.0898126 22.8196 0.000502183 22.3581 8.58885e-08C22.3581 8.58885e-08 20.6165 -0.00400019 18.8665 1.71467C17.1165 -0.00400019 15.3749 8.58885e-08 15.3749 8.58885e-08C14.9135 0.000558886 14.457 0.089764 14.0327 0.262277C13.6083 0.434789 13.2249 0.687063 12.9053 1.004C12.2739 1.62533 11.8833 2.48133 11.8833 3.428C11.8833 4.37467 12.2739 5.23333 12.9053 5.852L18.8665 12L24.8277 5.85333Z" fill="white"/>
</svg>
