<svg width="109" height="25" viewBox="0 0 109 25" fill="none" xmlns="http://www.w3.org/2000/svg">
<path d="M44.1264 5.0382V2.375H36.6907H34.8902H33.7188V20.0184H36.6907V12.7009H43.4249V10.0377H36.6907V5.0382H44.1264Z" fill="black"/>
<path d="M72.634 12.3472V20.0191H75.4399V11.6408C75.4399 9.69546 74.4298 6.11328 70.1508 6.11328C66.807 6.11328 65.521 8.12954 65.521 8.12954L65.3094 6.36703H62.8203V20.0191H65.6636V13.065C65.6636 10.0246 67.277 8.59131 69.4493 8.59131C72.0307 8.59131 72.634 10.6396 72.634 12.3472Z" fill="black"/>
<path d="M103.267 18.8459L108.998 6.34375H106.073L101.903 15.9084L97.4607 6.34375H94.3789L100.412 18.9945C100.281 19.3008 99.4763 21.1342 98.8847 21.724C98.368 22.2246 97.6543 22.4241 96.8009 22.4241L97.2152 24.7895C97.8399 24.8089 98.462 24.7028 99.0431 24.4779C99.6243 24.253 100.152 23.914 100.594 23.4819C101.91 22.1789 102.995 19.4357 102.995 19.4357L103.229 18.9305H103.306L103.267 18.8459Z" fill="black"/>
<path d="M53.3998 6.14062H52.6446C50.7953 6.14063 49.0218 6.85884 47.7141 8.13725C46.4065 9.41566 45.6719 11.1496 45.6719 12.9575V13.4764C45.6725 15.284 46.4074 17.0173 47.715 18.2952C49.0225 19.5731 50.7957 20.291 52.6446 20.291H53.3998C55.2487 20.291 57.0219 19.5731 58.3294 18.2952C59.637 17.0173 60.3719 15.284 60.3725 13.4764V12.9575C60.3725 11.1496 59.6379 9.41566 58.3303 8.13725C57.0226 6.85884 55.2491 6.14063 53.3998 6.14062ZM57.5456 13.3873C57.5456 14.5392 57.0775 15.644 56.2443 16.4585C55.4112 17.2731 54.2811 17.7307 53.1029 17.7307H52.9579C51.7796 17.7307 50.6496 17.2731 49.8164 16.4585C48.9833 15.644 48.5152 14.5392 48.5152 13.3873V13.0444C48.5152 11.8924 48.9833 10.7877 49.8164 9.97311C50.6496 9.15857 51.7796 8.70095 52.9579 8.70095H53.0888C54.2671 8.70095 55.3971 9.15857 56.2303 9.97311C57.0635 10.7877 57.5315 11.8924 57.5315 13.0444L57.5456 13.3873Z" fill="black"/>
<path d="M89.6185 1.5V7.62879C88.3856 6.66425 86.8532 6.13933 85.2741 6.1406H84.8555C83.0064 6.1412 81.2332 6.8596 79.9258 8.13788C78.6183 9.41616 77.8834 11.1497 77.8828 12.9575V13.4764C77.8834 15.2839 78.6183 17.0173 79.9259 18.2952C81.2335 19.5731 83.0066 20.291 84.8555 20.291H85.2741C87.0289 20.2935 88.7197 19.6467 90.0067 18.4805L90.2372 19.9915H92.4806V1.5H89.6185ZM89.7588 13.3872C89.7588 14.5392 89.2908 15.644 88.4576 16.4585C87.6244 17.273 86.4944 17.7307 85.3161 17.7307H85.1712C83.9929 17.7307 82.8629 17.273 82.0297 16.4585C81.1965 15.644 80.7285 14.5392 80.7285 13.3872V13.0443C80.7285 11.8924 81.1965 10.7876 82.0297 9.97308C82.8629 9.15853 83.9929 8.70092 85.1712 8.70092H85.3161C86.4944 8.70092 87.6244 9.15853 88.4576 9.97308C89.2908 10.7876 89.7588 11.8924 89.7588 13.0443V13.3872Z" fill="black"/>
<path d="M15.4132 19.5027V16.5995C15.4131 16.4391 15.3698 16.2816 15.2877 16.1428C15.2056 16.004 15.0876 15.8887 14.9456 15.8085L12.3735 14.3569C12.2313 14.2766 12.07 14.2344 11.9058 14.2344C11.7417 14.2344 11.5804 14.2766 11.4382 14.3569L8.86609 15.8085C8.72405 15.8887 8.60607 16.004 8.52399 16.1428C8.4419 16.2816 8.39861 16.4391 8.39844 16.5995V19.5027C8.3982 19.6634 8.4413 19.8214 8.5234 19.9606C8.6055 20.0999 8.7237 20.2156 8.86609 20.2959L11.4382 21.7475C11.5804 21.8278 11.7417 21.87 11.9058 21.87C12.07 21.87 12.2313 21.8278 12.3735 21.7475L14.9456 20.2959C15.088 20.2156 15.2062 20.0999 15.2883 19.9606C15.3704 19.8214 15.4135 19.6634 15.4132 19.5027Z" fill="#08A835"/>
<path d="M23.8156 19.5027V16.5995C23.8154 16.4391 23.7721 16.2816 23.69 16.1428C23.6079 16.004 23.49 15.8887 23.3479 15.8085L20.7758 14.3569C20.6336 14.2766 20.4724 14.2344 20.3082 14.2344C20.144 14.2344 19.9827 14.2766 19.8405 14.3569L17.2684 15.8085C17.1264 15.8887 17.0084 16.004 16.9263 16.1428C16.8442 16.2816 16.801 16.4391 16.8008 16.5995V19.5027C16.8005 19.6634 16.8436 19.8214 16.9257 19.9606C17.0078 20.0999 17.126 20.2156 17.2684 20.2959L19.8405 21.7475C19.9827 21.8278 20.144 21.87 20.3082 21.87C20.4724 21.87 20.6336 21.8278 20.7758 21.7475L23.3479 20.2959C23.4903 20.2156 23.6085 20.0999 23.6906 19.9606C23.7727 19.8214 23.8158 19.6634 23.8156 19.5027Z" fill="#08A835"/>
<path d="M11.2257 12.3855V9.48227C11.2264 9.32114 11.1835 9.16271 11.1014 9.02301C11.0192 8.88331 10.9008 8.7673 10.7581 8.68674L8.18599 7.23969C8.0438 7.15944 7.88251 7.11719 7.71833 7.11719C7.55415 7.11719 7.39287 7.15944 7.25068 7.23969L4.67859 8.68674C4.53655 8.76691 4.41857 8.8822 4.33649 9.02103C4.2544 9.15986 4.21111 9.31734 4.21094 9.4777V12.3809C4.2107 12.5417 4.2538 12.6996 4.3359 12.8389C4.418 12.9782 4.5362 13.0938 4.67859 13.1742L7.25068 14.6304C7.39287 14.7106 7.55415 14.7529 7.71833 14.7529C7.88251 14.7529 8.0438 14.7106 8.18599 14.6304L10.7581 13.1787C10.9005 13.0984 11.0187 12.9827 11.1008 12.8435C11.1829 12.7042 11.226 12.5462 11.2257 12.3855Z" fill="#08A835"/>
<path d="M19.6159 12.3853V9.48203C19.6157 9.32167 19.5724 9.16418 19.4903 9.02536C19.4083 8.88653 19.2903 8.77124 19.1482 8.69107L16.5761 7.23945C16.434 7.15919 16.2727 7.11694 16.1085 7.11694C15.9443 7.11694 15.783 7.15919 15.6408 7.23945L13.0688 8.68649C12.9267 8.76667 12.8087 8.88196 12.7266 9.02078C12.6446 9.15961 12.6013 9.3171 12.6011 9.47745V12.3807C12.6009 12.5414 12.644 12.6994 12.7261 12.8387C12.8082 12.9779 12.9264 13.0936 13.0688 13.1739L15.6408 14.6255C15.783 14.7058 15.9443 14.7481 16.1085 14.7481C16.2727 14.7481 16.434 14.7058 16.5761 14.6255L19.1482 13.1739C19.2899 13.0939 19.4077 12.979 19.4898 12.8406C19.5718 12.7022 19.6153 12.5452 19.6159 12.3853Z" fill="#08A835"/>
<path d="M7.01479 19.5027V16.5995C7.01462 16.4391 6.97133 16.2816 6.88924 16.1428C6.80716 16.004 6.68918 15.8887 6.54714 15.8085L3.97505 14.3569C3.83286 14.2766 3.67158 14.2344 3.5074 14.2344C3.34322 14.2344 3.18193 14.2766 3.03974 14.3569L0.467654 15.8085C0.32561 15.8887 0.20763 16.004 0.125548 16.1428C0.043466 16.2816 0.000169251 16.4391 1.0163e-06 16.5995V19.5027C-0.000241325 19.6634 0.0428607 19.8214 0.124963 19.9606C0.207065 20.0999 0.325267 20.2156 0.467654 20.2959L3.03974 21.7475C3.18193 21.8278 3.34322 21.87 3.5074 21.87C3.67158 21.87 3.83286 21.8278 3.97505 21.7475L6.54714 20.2959C6.68953 20.2156 6.80773 20.0999 6.88983 19.9606C6.97193 19.8214 7.01503 19.6634 7.01479 19.5027Z" fill="#08A835"/>
<path d="M15.4132 5.26831V2.36508C15.4131 2.20473 15.3698 2.04724 15.2877 1.90841C15.2056 1.76958 15.0876 1.6543 14.9456 1.57412L12.3735 0.122507C12.2313 0.0422511 12.07 0 11.9058 0C11.7417 0 11.5804 0.0422511 11.4382 0.122507L8.86609 1.57412C8.72405 1.6543 8.60607 1.76958 8.52399 1.90841C8.4419 2.04724 8.39861 2.20473 8.39844 2.36508V5.26831C8.3982 5.42905 8.4413 5.58701 8.5234 5.72628C8.6055 5.86554 8.7237 5.98118 8.86609 6.06155L11.4382 7.51317C11.5804 7.59342 11.7417 7.63568 11.9058 7.63568C12.07 7.63568 12.2313 7.59342 12.3735 7.51317L14.9456 6.06155C15.088 5.98118 15.2062 5.86554 15.2883 5.72628C15.3704 5.58701 15.4135 5.42905 15.4132 5.26831Z" fill="black"/>
</svg>
