<svg width="41" height="41" viewBox="0 0 41 41" fill="none" xmlns="http://www.w3.org/2000/svg">
<path d="M34.9162 13.8538C34.8994 12.5915 34.6631 11.3418 34.2178 10.1605C33.8318 9.16406 33.2421 8.25913 32.4865 7.50352C31.7308 6.74791 30.8259 6.15822 29.8295 5.77214C28.6634 5.3344 27.4315 5.0977 26.1862 5.07214C24.5828 5.00047 24.0745 4.98047 20.0045 4.98047C15.9345 4.98047 15.4128 4.98047 13.8212 5.07214C12.5764 5.09789 11.3451 5.33458 10.1795 5.77214C9.18294 6.15795 8.27788 6.74754 7.52223 7.50319C6.76659 8.25884 6.17699 9.1639 5.79118 10.1605C5.35256 11.3257 5.11638 12.5573 5.09285 13.8021C5.02118 15.4071 4.99951 15.9155 4.99951 19.9855C4.99951 24.0555 4.99951 24.5755 5.09285 26.1688C5.11785 27.4155 5.35284 28.6455 5.79118 29.8138C6.17764 30.8101 6.76767 31.7148 7.52357 32.4701C8.27947 33.2254 9.18462 33.8148 10.1812 34.2005C11.3436 34.6558 12.5751 34.9094 13.8228 34.9505C15.4278 35.0221 15.9362 35.0438 20.0062 35.0438C24.0762 35.0438 24.5978 35.0438 26.1895 34.9505C27.4348 34.9259 28.6668 34.6898 29.8328 34.2521C30.829 33.8656 31.7337 33.2758 32.4892 32.5202C33.2448 31.7647 33.8346 30.86 34.2212 29.8638C34.6595 28.6971 34.8945 27.4671 34.9195 26.2188C34.9912 24.6155 35.0128 24.1071 35.0128 20.0355C35.0095 15.9655 35.0095 15.4488 34.9162 13.8538V13.8538ZM19.9945 27.6821C15.7378 27.6821 12.2895 24.2338 12.2895 19.9771C12.2895 15.7205 15.7378 12.2721 19.9945 12.2721C22.038 12.2721 23.9978 13.0839 25.4428 14.5289C26.8877 15.9738 27.6995 17.9336 27.6995 19.9771C27.6995 22.0206 26.8877 23.9804 25.4428 25.4254C23.9978 26.8704 22.038 27.6821 19.9945 27.6821V27.6821ZM28.0062 13.7838C27.7702 13.784 27.5364 13.7377 27.3184 13.6475C27.1003 13.5573 26.9021 13.4249 26.7353 13.2581C26.5684 13.0912 26.436 12.893 26.3458 12.6749C26.2556 12.4569 26.2093 12.2231 26.2095 11.9871C26.2095 11.7513 26.256 11.5178 26.3462 11.2999C26.4365 11.082 26.5687 10.884 26.7355 10.7173C26.9023 10.5505 27.1002 10.4183 27.3181 10.328C27.536 10.2378 27.7695 10.1913 28.0053 10.1913C28.2412 10.1913 28.4747 10.2378 28.6926 10.328C28.9105 10.4183 29.1084 10.5505 29.2752 10.7173C29.442 10.884 29.5742 11.082 29.6645 11.2999C29.7547 11.5178 29.8012 11.7513 29.8012 11.9871C29.8012 12.9805 28.9978 13.7838 28.0062 13.7838Z" fill="white"/>
<path d="M19.9943 24.9822C22.7584 24.9822 24.9993 22.7414 24.9993 19.9772C24.9993 17.213 22.7584 14.9722 19.9943 14.9722C17.2301 14.9722 14.9893 17.213 14.9893 19.9772C14.9893 22.7414 17.2301 24.9822 19.9943 24.9822Z" fill="white"/>
</svg>
