<svg width="39" height="32" viewBox="0 0 39 32" fill="none" xmlns="http://www.w3.org/2000/svg">
<path d="M38.4092 4.24051C37.0176 4.85717 35.5226 5.27384 33.9509 5.46217C35.5726 4.49183 36.7858 2.96462 37.3643 1.16551C35.8407 2.07049 34.1732 2.7075 32.4343 3.04884C31.2649 1.80028 29.716 0.972716 28.0281 0.694629C26.3402 0.416542 24.6077 0.703492 23.0996 1.51093C21.5915 2.31836 20.3922 3.60111 19.6878 5.16001C18.9835 6.71891 18.8135 8.46676 19.2043 10.1322C16.1171 9.97717 13.097 9.17475 10.34 7.77701C7.58295 6.37927 5.15065 4.41744 3.20092 2.01884C2.53425 3.16884 2.15092 4.50217 2.15092 5.92217C2.15017 7.2005 2.46497 8.45924 3.06738 9.58673C3.66979 10.7142 4.54119 11.6756 5.60425 12.3855C4.37138 12.3463 3.16571 12.0131 2.08758 11.4138V11.5138C2.08746 13.3067 2.70764 15.0445 3.84289 16.4322C4.97814 17.8199 6.55854 18.7721 8.31592 19.1272C7.17222 19.4367 5.97315 19.4823 4.80925 19.2605C5.30508 20.8032 6.27091 22.1522 7.57153 23.1187C8.87215 24.0852 10.4424 24.6208 12.0626 24.6505C9.31231 26.8095 5.91573 27.9807 2.41925 27.9755C1.79989 27.9757 1.18105 27.9395 0.565918 27.8672C4.11504 30.1491 8.24648 31.3602 12.4659 31.3555C26.7493 31.3555 34.5576 19.5255 34.5576 9.26551C34.5576 8.93217 34.5493 8.5955 34.5343 8.26217C36.0531 7.1638 37.3641 5.80367 38.4059 4.24551L38.4092 4.24051Z" fill="white"/>
</svg>
