<svg width="77" height="25" viewBox="0 0 77 25" fill="none" xmlns="http://www.w3.org/2000/svg">
<path d="M10.6865 20.704C11.1771 20.704 11.6891 20.672 12.2225 20.608L11.9665 24.128C11.3478 24.2133 10.7291 24.256 10.1105 24.256C7.72113 24.256 5.9718 23.7333 4.86246 22.688C3.77446 21.6427 3.23046 20.0533 3.23046 17.92V11.904H0.254465V8.288H3.23046V3.68H8.06247V8.288H11.9985V11.904H8.06247V17.888C8.06247 19.7653 8.93713 20.704 10.6865 20.704ZM14.3575 24V8.288H19.1895V24H14.3575ZM14.1975 0.735998H19.3815V5.248H14.1975V0.735998ZM31.5927 20.704C32.0834 20.704 32.5954 20.672 33.1287 20.608L32.8727 24.128C32.254 24.2133 31.6354 24.256 31.0167 24.256C28.6274 24.256 26.878 23.7333 25.7687 22.688C24.6807 21.6427 24.1367 20.0533 24.1367 17.92V11.904H21.1607V8.288H24.1367V3.68H28.9687V8.288H32.9047V11.904H28.9687V17.888C28.9687 19.7653 29.8434 20.704 31.5927 20.704ZM42.2397 7.904C44.5864 7.904 46.3144 8.45867 47.4237 9.568C48.5544 10.6773 49.1197 12.3947 49.1197 14.72V24H44.5437V21.664C44.2237 22.4747 43.6904 23.1147 42.9437 23.584C42.197 24.032 41.3224 24.256 40.3197 24.256C39.253 24.256 38.2824 24.0427 37.4077 23.616C36.5544 23.1893 35.8717 22.592 35.3597 21.824C34.869 21.056 34.6237 20.2027 34.6237 19.264C34.6237 18.112 34.9117 17.2053 35.4877 16.544C36.085 15.8827 37.0344 15.4027 38.3357 15.104C39.637 14.8053 41.4184 14.656 43.6797 14.656H44.5117V14.08C44.5117 13.1413 44.309 12.48 43.9037 12.096C43.4984 11.712 42.7944 11.52 41.7917 11.52C41.0237 11.52 40.1704 11.6587 39.2317 11.936C38.293 12.2133 37.397 12.5973 36.5437 13.088L35.2637 9.856C36.1597 9.30133 37.2584 8.84267 38.5597 8.48C39.8824 8.096 41.109 7.904 42.2397 7.904ZM41.3757 20.928C42.3144 20.928 43.0717 20.6187 43.6477 20C44.2237 19.36 44.5117 18.5387 44.5117 17.536V16.992H43.9677C42.2397 16.992 41.0237 17.1307 40.3197 17.408C39.637 17.6853 39.2957 18.1867 39.2957 18.912C39.2957 19.488 39.4877 19.968 39.8717 20.352C40.277 20.736 40.7784 20.928 41.3757 20.928ZM62.5885 7.904C64.4658 7.904 65.8631 8.45867 66.7805 9.568C67.6978 10.656 68.1565 12.3093 68.1565 14.528V24H63.3245V14.752C63.3245 13.6853 63.1218 12.9067 62.7165 12.416C62.3325 11.9253 61.7245 11.68 60.8925 11.68C59.8898 11.68 59.0791 12 58.4605 12.64C57.8631 13.28 57.5645 14.1333 57.5645 15.2V24H52.7325V8.288H57.4365V10.528C57.9911 9.67467 58.7058 9.024 59.5805 8.576C60.4765 8.128 61.4791 7.904 62.5885 7.904ZM71.4757 18.88H76.6597V24H71.4757V18.88Z" fill="#181818"/>
</svg>
