<svg width="54" height="40" viewBox="0 0 54 40" fill="none" xmlns="http://www.w3.org/2000/svg">
<path d="M48 0.5H6C4.4087 0.5 2.88258 1.13214 1.75736 2.25736C0.632141 3.38258 0 4.9087 0 6.5L0 20H54V6.5C54 4.9087 53.3679 3.38258 52.2426 2.25736C51.1174 1.13214 49.5913 0.5 48 0.5Z" fill="#005BBB"/>
<path d="M54 33.5C54 35.0913 53.3679 36.6174 52.2426 37.7426C51.1174 38.8679 49.5913 39.5 48 39.5H6C4.4087 39.5 2.88258 38.8679 1.75736 37.7426C0.632141 36.6174 0 35.0913 0 33.5V20H54V33.5Z" fill="#FFD500"/>
</svg>
