<svg width="173" height="54" viewBox="0 0 173 54" fill="none" xmlns="http://www.w3.org/2000/svg">
<path d="M23.8865 45.584C24.9905 45.584 26.1425 45.512 27.3425 45.368L26.7665 53.288C25.3745 53.48 23.9825 53.576 22.5905 53.576C17.2145 53.576 13.2785 52.4 10.7825 50.048C8.33447 47.696 7.11047 44.12 7.11047 39.32V25.784H0.414465V17.648H7.11047V7.28H17.9825V17.648H26.8385V25.784H17.9825V39.248C17.9825 43.472 19.9505 45.584 23.8865 45.584ZM32.1462 53V17.648H43.0182V53H32.1462ZM31.7862 0.655996H43.4502V10.808H31.7862V0.655996ZM70.9255 45.584C72.0295 45.584 73.1815 45.512 74.3815 45.368L73.8055 53.288C72.4135 53.48 71.0215 53.576 69.6295 53.576C64.2535 53.576 60.3175 52.4 57.8215 50.048C55.3735 47.696 54.1495 44.12 54.1495 39.32V25.784H47.4535V17.648H54.1495V7.28H65.0215V17.648H73.8775V25.784H65.0215V39.248C65.0215 43.472 66.9895 45.584 70.9255 45.584ZM94.8813 16.784C100.161 16.784 104.049 18.032 106.545 20.528C109.089 23.024 110.361 26.888 110.361 32.12V53H100.065V47.744C99.3453 49.568 98.1453 51.008 96.4653 52.064C94.7853 53.072 92.8173 53.576 90.5613 53.576C88.1613 53.576 85.9773 53.096 84.0093 52.136C82.0893 51.176 80.5533 49.832 79.4013 48.104C78.2973 46.376 77.7453 44.456 77.7453 42.344C77.7453 39.752 78.3933 37.712 79.6893 36.224C81.0333 34.736 83.1693 33.656 86.0973 32.984C89.0253 32.312 93.0333 31.976 98.1213 31.976H99.9933V30.68C99.9933 28.568 99.5373 27.08 98.6253 26.216C97.7133 25.352 96.1293 24.92 93.8733 24.92C92.1453 24.92 90.2253 25.232 88.1133 25.856C86.0013 26.48 83.9853 27.344 82.0653 28.448L79.1853 21.176C81.2013 19.928 83.6733 18.896 86.6013 18.08C89.5773 17.216 92.3373 16.784 94.8813 16.784ZM92.9373 46.088C95.0493 46.088 96.7533 45.392 98.0493 44C99.3453 42.56 99.9933 40.712 99.9933 38.456V37.232H98.7693C94.8813 37.232 92.1453 37.544 90.5613 38.168C89.0253 38.792 88.2573 39.92 88.2573 41.552C88.2573 42.848 88.6893 43.928 89.5533 44.792C90.4653 45.656 91.5933 46.088 92.9373 46.088ZM140.666 16.784C144.89 16.784 148.034 18.032 150.098 20.528C152.162 22.976 153.194 26.696 153.194 31.688V53H142.322V32.192C142.322 29.792 141.866 28.04 140.954 26.936C140.09 25.832 138.722 25.28 136.85 25.28C134.594 25.28 132.77 26 131.378 27.44C130.034 28.88 129.362 30.8 129.362 33.2V53H118.49V17.648H129.074V22.688C130.322 20.768 131.93 19.304 133.898 18.296C135.914 17.288 138.17 16.784 140.666 16.784ZM160.662 41.48H172.326V53H160.662V41.48Z" fill="white"/>
</svg>
